<?xml version="1.0" encoding="UTF-8"?>
<svg width="148px" height="100px" viewBox="0 0 148 100" version="1.1" xmlns="http://www.w3.org/2000/svg" xmlns:xlink="http://www.w3.org/1999/xlink">
    <!-- Generator: Sketch 46.2 (44496) - http://www.bohemiancoding.com/sketch -->
    <title>34_Travel Certificate No Schengen Countries_blue</title>
    <desc>Created with Sketch.</desc>
    <defs>
        <polygon id="path-1" points="0 199.999995 199.999995 199.999995 199.999995 0 0 0"></polygon>
    </defs>
    <g id="Page-1" stroke="none" stroke-width="1" fill="none" fill-rule="evenodd">
        <g id="34_Travel-Certificate-No-Schengen-Countries_blue" transform="translate(-26.142857, -50.000000)">
            <g id="g10" transform="translate(99.999998, 100.000002) scale(-1, 1) rotate(-180.000000) translate(-99.999998, -100.000002) translate(0.000000, 0.000005)">
                <path d="M26.666666,49.9999988 L173.333329,49.9999988 L173.333329,149.999996 L26.666666,149.999996 L26.666666,49.9999988 Z M34.6666658,141.999996 L165.333329,141.999996 L165.333329,57.9999986 L34.6666658,57.9999986 L34.6666658,141.999996 Z" id="path12" fill="#0F357E" fill-rule="nonzero"></path>
                <g id="g14">
                    <g id="g16-Clipped">
                        <mask id="mask-2" fill="white">
                            <use xlink:href="#path-1"></use>
                        </mask>
                        <g id="path18"></g>
                        <g id="g16" mask="url(#mask-2)">
                            <g transform="translate(50.666665, 73.333332)">
                                <g id="g22" transform="translate(52.170532, 0.567067)">
                                    <path d="M25.3333327,51.9999987 L25.322666,52.013332 C25.3173327,52.009332 25.3133327,52.0026654 25.3079994,51.9999987 C11.537333,51.3439987 0.567999986,40.0026657 0.566666653,26.0719993 C0.567999986,12.1386664 11.537333,0.802666647 25.306666,0.146666663 C25.3133327,0.14133333 25.3173327,0.135999997 25.3239994,0.130666663 L25.3373327,0.143999996 C25.7439994,0.12533333 26.1439993,0.0839999979 26.5533327,0.0839999979 C26.9653327,0.0839999979 27.366666,0.12533333 27.7733326,0.146666663 L27.786666,0.130666663 C27.7919993,0.135999997 27.798666,0.14133333 27.8039993,0.146666663 C41.571999,0.805333313 52.5426654,12.141333 52.5439987,26.0719993 C52.5426654,40.0026657 41.5706656,51.3439987 27.8013326,51.9999987 C27.7959993,52.0026654 27.790666,52.009332 27.786666,52.013332 L27.7759993,51.9999987 C27.3679993,52.0199987 26.9679993,52.061332 26.5533327,52.061332 C26.142666,52.061332 25.7413327,52.0199987 25.3333327,51.9999987 M19.3333329,39.311999 C21.0426661,43.1213323 23.4706661,46.5306655 26.4373327,49.3893321 C26.4773327,49.3893321 26.5159993,49.3973321 26.5533327,49.3973321 C26.594666,49.3973321 26.634666,49.3893321 26.6733327,49.3893321 C29.6346659,46.5373322 32.0586659,43.1373323 33.7653325,39.3386657 C31.4293325,38.8026657 28.9999993,38.5106657 26.498666,38.5106657 C24.0333327,38.5106657 21.6373328,38.791999 19.3333329,39.311999 M30.7173326,48.9973321 C35.3253325,48.1599988 39.4546657,45.9786655 42.6946656,42.8666656 C40.7026656,41.7146656 38.583999,40.767999 36.3586658,40.055999 C34.9293325,43.3279989 33.0226658,46.3373322 30.7173326,48.9973321 M10.3719997,42.8266656 C13.617333,45.9639989 17.7639996,48.1559988 22.3933328,48.9973321 C20.0826662,46.3279988 18.1666662,43.3066656 16.7399996,40.023999 C14.501333,40.731999 12.3706664,41.675999 10.3719997,42.8266656 M37.3279991,37.5719991 C39.879999,38.4013324 42.3039989,39.511999 44.5613322,40.871999 C47.6093321,37.1679991 49.5093321,32.5039992 49.8079988,27.4053326 L39.231999,27.4053326 C39.0986657,30.9533326 38.439999,34.3666658 37.3279991,37.5719991 M8.51333312,40.8253323 C10.7773331,39.4666657 13.2106663,38.359999 15.7706663,37.5359991 C14.665333,34.3426658 14.0106663,30.9413326 13.8786663,27.4053326 L3.30399992,27.4053326 C3.59866658,32.4826659 5.48666653,37.1306657 8.51333312,40.8253323 M34.7573325,36.8426657 C35.8053324,33.8706658 36.4306658,30.7026659 36.5653324,27.4053326 L16.5453329,27.4053326 C16.6773329,30.6933326 17.3013329,33.8519992 18.3439995,36.8133324 C20.9626661,36.1906658 23.6893327,35.8426658 26.498666,35.8426658 C29.3439993,35.8426658 32.1053325,36.1986658 34.7573325,36.8426657 M37.1653324,14.125333 C38.3746657,17.4559996 39.0933324,21.0239995 39.231999,24.7373327 L49.8079988,24.7373327 C49.5013321,19.4826662 47.4786655,14.6986663 44.2653322,10.9439997 C42.0453323,12.253333 39.667999,13.3239997 37.1653324,14.125333 M16.5453329,24.7373327 L36.5653324,24.7373327 C36.4253324,21.2693328 35.7386658,17.9439996 34.5906658,14.8386663 C31.9893325,15.4559996 29.2839993,15.7973329 26.498666,15.7973329 C23.7506661,15.7973329 21.0799995,15.4639996 18.5106662,14.865333 C17.3693329,17.9613329 16.6853329,21.2773328 16.5453329,24.7373327 M3.30399992,24.7373327 L13.8786663,24.7373327 C14.017333,21.0346661 14.7319996,17.4799996 15.9333329,14.157333 C13.421333,13.3626663 11.0346664,12.2946664 8.80399978,10.9853331 C5.61333319,14.7346663 3.60799991,19.5026662 3.30399992,24.7373327 M26.4359993,2.75599993 C23.5879994,5.49999986 21.2399995,8.75599978 19.5453328,12.3786664 C21.7853328,12.8706663 24.1106661,13.1279997 26.498666,13.1279997 C28.9226659,13.1279997 31.2813326,12.8599997 33.5519992,12.3546664 C31.8586659,8.73999978 29.5173326,5.49599986 26.674666,2.75599993 C26.634666,2.75599993 26.594666,2.7506666 26.5533327,2.7506666 C26.514666,2.7506666 26.4759993,2.75599993 26.4359993,2.75599993 M10.7106664,9.01066644 C12.6679997,10.1053331 14.7466663,11.0026664 16.9266662,11.677333 C18.3319995,8.56266645 20.1839995,5.69866652 22.3919994,3.14933325 C17.9199996,3.96133323 13.9039997,6.04266652 10.7106664,9.01066644 M36.1706658,11.6466664 C38.339999,10.9693331 40.4106657,10.0706664 42.3586656,8.97199978 C39.1706657,6.02666652 35.1706658,3.95866657 30.7186659,3.14933325 C32.9186658,5.69066652 34.7679991,8.54533312 36.1706658,11.6466664" id="path24" fill="#0F357E" fill-rule="nonzero"></path>
                                </g>
                                <g id="g26" transform="translate(0.433600, 10.846400)">
                                    <path d="M0,1.3333333 L0.0013333333,1.33199997 L46.4773322,1.33199997 L46.4773322,5.53866653 L0,5.53866653 L0,1.3333333 Z M0,17.4759996 L0,13.2706663 L0.0013333333,13.269333 L46.4773322,13.269333 L46.4773322,17.4773329 L0.0013333333,17.4773329 L0,17.4759996 Z M0.0013333333,29.4159993 L0,29.4133326 L0,25.2079994 L46.4773322,25.2079994 L46.4773322,29.4159993 L0.0013333333,29.4159993 Z" id="path28" fill="#0F357E" fill-rule="nonzero"></path>
                                </g>
                            </g>
                        </g>
                    </g>
                </g>
            </g>
        </g>
    </g>
</svg>